<svg width="98" height="98" viewBox="0 0 98 98" fill="none" xmlns="http://www.w3.org/2000/svg">
<path d="M96.5435 60.8261C90.005 87.0601 63.4344 103.08 37.1522 96.5371C10.9182 89.9786 -5.07549 63.4078 1.46299 37.1739C8.00148 10.9399 34.5561 -5.07951 60.7741 1.46295C87.0723 7.92523 103.066 34.5761 96.5435 60.8261Z" fill="#ECEFF0"/>
<path d="M49.5707 60.8859C49.3803 60.9507 49.2718 60.785 49.1423 60.7089C42.7965 56.9636 36.4577 53.2158 30.1259 49.4654C30.0646 49.4345 30.001 49.4084 29.9355 49.3874V49.3036L30.0479 49.2389C30.2074 49.197 30.3644 49.1462 30.5181 49.0866L45.4719 42.2826C46.8046 41.6753 48.1372 41.0776 49.4698 40.476H49.565C49.565 40.6664 49.565 40.8358 49.565 41.0167C49.57 47.6404 49.5719 54.2635 49.5707 60.8859Z" fill="#343535"/>
<path d="M49.5801 40.4806H49.4849C49.4849 40.2902 49.504 40.0999 49.504 39.9C49.504 32.4602 49.504 25.0198 49.504 17.5787C49.4821 17.3876 49.495 17.1941 49.5421 17.0076H49.582C50.3645 18.1632 51.046 19.3815 51.7656 20.5752C57.4667 30.0317 63.1646 39.4869 68.8593 48.9408C68.9145 49.0341 68.9582 49.1312 69.0077 49.234C68.8465 49.1995 68.688 49.1531 68.5337 49.095C67.4886 48.6229 66.4396 48.1431 65.404 47.6615C63.782 46.919 62.1594 46.1779 60.5361 45.4379L52.7156 41.8951C51.6742 41.4153 50.6272 40.9489 49.5801 40.4806Z" fill="#2F3030"/>
<path d="M49.5483 16.9977C49.5013 17.1843 49.4884 17.3778 49.5102 17.5689C49.5102 25.0087 49.5102 32.4491 49.5102 39.8901C49.5102 40.0805 49.4988 40.2709 49.4912 40.4708C48.1586 41.0724 46.826 41.6701 45.4934 42.2774L30.5395 49.0814C30.3858 49.1409 30.2288 49.1918 30.0693 49.2337C30.5015 48.3351 31.0631 47.5203 31.5752 46.6598C37.5085 36.7972 43.4462 26.9365 49.3884 17.0777C49.4277 17.0231 49.4703 16.971 49.516 16.9216L49.5483 16.9977Z" fill="#828384"/>
<path d="M49.5801 40.4806C50.6272 40.9489 51.6746 41.4155 52.7197 41.8876L60.5402 45.4305C62.1648 46.1691 63.7874 46.9103 65.4081 47.654C66.4514 48.1319 67.5022 48.6154 68.5378 49.0876C68.6922 49.1456 68.8506 49.1921 69.0119 49.2265C69.2022 49.4645 68.9205 49.474 68.8348 49.5254C67.2109 50.4963 65.5794 51.4539 63.9517 52.4172C59.28 55.1814 54.6095 57.945 49.9402 60.708C49.8222 60.7765 49.6944 60.8269 49.5707 60.8859C49.5707 54.2647 49.5709 47.6439 49.5709 41.0214C49.5728 40.8406 49.5782 40.6615 49.5801 40.4806Z" fill="#131313"/>
<path d="M49.5038 64.6471L61.7353 57.4376C64.0705 56.0593 66.4045 54.6798 68.7372 53.2989L68.9485 53.1828C68.9695 53.3732 68.8381 53.4741 68.7582 53.5845C63.4277 61.0992 58.0972 68.6113 52.7668 76.1209C51.7578 77.5449 50.7507 78.9765 49.7322 80.389C49.6789 80.4633 49.5971 80.8117 49.4333 80.4424C49.5628 80.3319 49.5057 80.1834 49.5057 80.0616C49.507 74.9215 49.5063 69.7833 49.5038 64.6471Z" fill="#2F3030"/>
<path d="M49.5027 64.648C49.5027 69.7843 49.5027 74.9193 49.5027 80.0531C49.5027 80.1844 49.5598 80.3329 49.4304 80.4338C49.1582 80.2701 49.0401 79.9769 48.8593 79.7351C42.6785 71.0287 36.5009 62.321 30.3264 53.6121C30.2484 53.5017 30.176 53.3836 30.0961 53.2618C30.256 53.1685 30.3416 53.2961 30.4349 53.3513C36.6855 57.042 42.9348 60.7359 49.1829 64.4329C49.299 64.5053 49.398 64.5795 49.5027 64.648Z" fill="#828384"/>
<path d="M49.5497 16.9976L49.504 16.9272C49.5878 16.8739 49.5764 16.952 49.5897 16.9919L49.5497 16.9976Z" fill="#393939"/>
</svg>
